<svg width="20" height="20" viewBox="0 0 20 20" fill="currentColor" xmlns="http://www.w3.org/2000/svg">
<path d="M17.7004 3.55741L16.0123 3.87732C16.0066 3.87834 15.5124 3.94146 14.757 3.5093L16.4993 1.74957L14.9125 2.01465C14.8569 2.01806 14.3132 2.03721 13.5236 1.57897C12.8616 1.19478 12.2106 1 11.5887 1C10.4185 1 9.52816 1.71931 9.31995 2.76749C8.87179 2.85771 8.46778 3.07481 8.15512 3.4118C7.81522 2.03159 6.56712 1.00482 5.08351 1.00482V2.05922C6.2463 2.05922 7.19231 3.00522 7.19231 4.16802V4.27961C6.41086 4.12159 5.61728 4.35264 5.01459 4.8345C4.226 5.46489 3.83229 6.45923 4.07768 7.45761C2.93998 7.64835 1.91553 8.52617 1.91553 10.0375C1.91553 11.4619 2.85549 12.4219 4.08608 12.6198C3.9417 13.2499 4.03642 13.9159 4.37182 14.505C4.76761 15.2001 5.42809 15.6614 6.192 15.7958C6.0518 16.4221 6.1475 17.0831 6.48062 17.6682C6.95539 18.5021 7.81093 18.9999 8.76913 18.9999C9.72737 18.9999 10.5829 18.502 11.0577 17.6681C11.3908 17.0831 11.4865 16.4221 11.3463 15.7958C12.1102 15.6615 12.7707 15.2001 13.1665 14.5049C13.4993 13.9205 13.5951 13.2604 13.4556 12.6347C13.9836 12.5465 14.452 12.3075 14.8281 11.9293C15.2158 11.5394 15.4859 11.0054 15.5827 10.4652C15.8869 10.4806 16.196 10.4848 16.511 10.4848H17.0382V9.95762C17.0382 8.18802 16.9422 6.8805 15.752 5.49772C16.4478 4.80245 16.4964 4.75504 17.7004 3.55741ZM10.3504 10.0515C10.3435 11.1228 9.55238 11.6028 8.76801 11.6028C7.98132 11.6028 7.18753 11.1188 7.18753 10.0375C7.18753 9.25459 7.76418 8.58694 8.53259 8.47313L8.15698 10.1874C9.53069 8.74795 9.48943 8.78538 10.0589 8.21038C10.5283 9.09737 10.349 9.74428 10.3504 10.0515ZM5.67299 5.65806C6.17703 5.2551 6.95113 5.1006 7.60697 5.60566C7.6889 6.05023 7.8647 6.50604 8.13315 6.96706C8.23104 7.1351 8.30643 7.29115 8.36487 7.43381C7.86463 7.5118 7.39268 7.7315 7.01085 8.07359C6.88924 8.18251 6.77972 8.30222 6.68156 8.4298C6.58347 8.29995 6.47258 8.18029 6.35055 8.07264C6.02797 7.78798 5.63257 7.58997 5.20065 7.49085C4.84623 6.70663 5.21686 6.02271 5.67299 5.65806ZM2.96993 10.0375C2.96993 8.95619 3.76484 8.47219 4.55265 8.47219C5.33934 8.47219 6.13313 8.95619 6.13313 10.0375C6.13313 11.1188 5.33822 11.6028 4.5504 11.6028C3.76372 11.6028 2.96993 11.1188 2.96993 10.0375ZM5.2881 13.9833C5.03757 13.5433 5.00995 13.0325 5.20417 12.5812C5.7689 12.4489 6.29241 12.1436 6.65977 11.6721C7.02691 12.1443 7.54603 12.4519 8.11758 12.5836C8.26478 12.9272 8.23451 13.1488 8.24038 13.2974C8.18882 14.0842 7.54494 14.7823 6.66029 14.7823C6.08593 14.7823 5.57296 14.4836 5.2881 13.9833ZM10.1414 17.1464C9.85653 17.6468 9.3435 17.9455 8.76913 17.9455C8.19476 17.9455 7.68176 17.6468 7.39693 17.1465C7.1489 16.7108 7.11959 16.2059 7.30752 15.7579C7.89162 15.6128 8.40448 15.272 8.76917 14.7803C9.13381 15.2721 9.64671 15.6129 10.2308 15.758C10.4187 16.206 10.3894 16.7108 10.1414 17.1464ZM12.2502 13.9832C11.9653 14.4836 11.4523 14.7823 10.8779 14.7823C9.99396 14.7823 9.3494 14.0836 9.29788 13.2974C9.30371 13.1492 9.27338 12.9261 9.42177 12.5812C9.99719 12.4464 10.53 12.1321 10.8982 11.6453C11.2619 12.1171 11.7675 12.449 12.339 12.5932C12.5276 13.0416 12.4985 13.5472 12.2502 13.9832ZM12.9867 11.6191C12.0312 11.6191 11.2943 10.7778 11.4188 9.83082L12.0528 9.19677C12.8555 9.87506 13.6754 10.1986 14.5305 10.3514C14.374 11.0498 13.8282 11.6191 12.9867 11.6191ZM15.9801 9.42529C14.6142 9.39447 13.512 9.19529 12.4103 8.09366L12.0376 7.72085L11.2933 8.46516C11.1505 7.96804 10.9069 7.50094 10.5593 7.05454L10.1925 6.58361C9.8681 6.90823 9.68073 7.09486 9.44824 7.32886C9.36251 7.06301 9.2343 6.76269 9.04429 6.43642C8.6218 5.71096 8.36477 4.70144 8.94715 4.10785C9.11747 3.93422 9.33953 3.82604 9.59691 3.7891L13.5287 7.72085L14.2743 6.97529L10.3427 3.04374C10.4304 2.44418 10.9089 2.0544 11.5887 2.0544C12.0162 2.0544 12.5023 2.20536 12.9944 2.49089C13.3195 2.67955 13.6179 2.80795 13.8808 2.89486C13.6338 3.14268 13.4462 3.3298 13.137 3.63909L13.6101 4.00553C14.1256 4.4048 14.5954 4.63645 14.99 4.76857C14.7572 5.00117 14.6966 5.06187 14.2743 5.48415L14.6471 5.85692C15.7827 6.99251 15.956 8.00263 15.9801 9.42529Z" fill="#475467"/>
</svg>
